<svg xmlns="http://www.w3.org/2000/svg" fill="none" viewBox="0 0 3000 3000"><path fill="#ae01fb" d="m1404.87 1627.66-15.66-244.56-16.74-333.55c-47.34-25.28-111.06-44.5-170.87-51.619a44.102 44.102 0 0 0-5.69 6.759c-25.63 17.45-53.04 21.36-84.01 19.58-30.97-1.78-49.49-22.78-84.73-12.1a704.942 704.942 0 0 0-118.539 48.77 30.26 30.26 0 0 0-15.664 26.34c-1.423 174.79-6.407 350.29-8.543 526.85 134.556 2.85 269.126 5.7 401.546 7.84 35.6-16.02 79.74-12.82 118.9 5.69ZM2066.99 1728.76c32.75-32.75 66.22-65.86 105.73-90.42 39.51-24.56 86.15-40.22 132.07-34.53 45.92 5.7 91.84 34.89 123.88 71.91 32.04 37.02 53.04 81.87 71.91 127.08a1358.78 1358.78 0 0 1 49.48 143.11L2460 1810.99c-17.8-27.41-37.38-55.89-66.22-70.84-12.1-6.41-27.41-9.61-38.8-2.13-17.08 11.03-13.17 36.66-7.47 56.24-29.55-15.31-65.15-13.17-97.9-6.76s-65.85 15.66-98.96 12.81c-33.11-2.84-68.35-20.29-83.66-71.55ZM2651.87 1029.26c-100.74-3.92-203.62-7.48-299.74 21.71a467.105 467.105 0 0 0-248.12 185.47 494.113 494.113 0 0 0-81.87 299.02 1104 1104 0 0 0 125.3-187.6l-48.05-32.75c25.63 7.12 53.75 14.24 77.96 3.56 9.9-4.92 19.02-11.27 27.05-18.87l103.95-87.92c6.41-5.34 12.81-11.04 15.66-18.51 7.83-21.36-17.44-45.57-8.54-66.57 21.71 21.36 43.43 42.71 64.79 64.43a683.395 683.395 0 0 1 271.61-161.97ZM1899.68 1547.21c-9.97-79.74-58.38-148.44-106.79-212.52-48.42-64.08-99.68-129.58-117.48-207.54-21-91.84 6.77-188.668-9.61-281.223a399.868 399.868 0 0 0 63.37 154.853c5.34 7.83 11.03 15.66 11.74 25.27 1.78 18.51-16.01 32.04-29.9 44.5-13.88 12.46-24.56 35.24-11.03 48.06 13.52 12.81 26.34 5.34 38.8-.71 12.46-6.06 25.99-13.17 39.16-8.9 13.17 4.27 14.59 10.68 20.29 18.15a651.806 651.806 0 0 1 117.12 467.76c-6.41-19.22-14.6-38.09-15.67-47.7Z" class="colorAE01FB svgShape"/><path fill="#eeccfe" d="M1090.54 364.284a284.14 284.14 0 0 1 56.95 88.64c6.41 16.019 11.39 32.75 20.29 47.701 8.9 14.951 22.79 27.767 39.87 30.259 11.04 1.779 22.79-.712 33.11 2.847 10.32 3.56 22.07 19.935 25.27 34.531 3.21 14.595 1.43 65.144 4.28 79.739 0 41.65 9.96-6.051 15.66-7.119-4.98-38.09-9.97-113.202-22.78-149.868-12.82-36.666-32.75-71.197-62.3-96.115-29.55-24.919-69.77-38.446-110.35-30.615ZM2167.38 1901.06l-1.07 16.02s-43.78 386.95-43.43 389.44a283.506 283.506 0 0 1-38.09 9.61 132.28 132.28 0 0 1-32.75 4.63 2737.791 2737.791 0 0 0 24.57-374.14l90.77-45.56ZM865.912 2315.06c28.479-2.85 59.805.36 80.096 20.65 20.291 20.29 22.783 44.14 30.97 67.99a230.677 230.677 0 0 0 47.472 79.02 230.753 230.753 0 0 0 74.63 54.12c8.19-16.02 3.2-36.67-7.83-50.91-11.04-14.24-26.7-24.2-42.01-33.46-15.3-9.26-30.97-19.93-41.29-34.53-14.953-21.36-16.376-48.41-21.004-73.69-4.628-25.27-14.596-53.04-37.734-63.72-23.139-10.68-44.854-3.56-83.3 34.53ZM1466.81 2439.3c-1.78 25.28-20.65 45.92-38.09 64.08-34.89 35.6-69.42 71.55-108.22 102.88-16.73 13.17-34.17 25.98-54.11 34.17-19.93 8.19-41.65 12.46-62.65 7.83-11.75-2.49-24.56-7.83-35.6-2.85 1.43 12.11 11.39 21.72 22.43 26.35 11.03 4.62 23.49 5.34 35.6 5.69 22.07.36 44.85-1.07 65.5-9.25 20.64-8.19 44.85-30.26 64.07-49.49 35.6-36.31 72.15-71.67 109.65-106.08 11.39-10.32 23.13-21.36 30.25-35.24 7.12-13.88 8.9-31.68 0-44.5l-28.83 6.41Z" class="colorEECCFE svgShape"/><path fill="#190157" d="M1520.21 2419.01c-25.28-204.33-28.48-407.24-35.25-592.71a699.474 699.474 0 0 1-97.89 89c-26.7 56.24-78.32 113.91-136.7 136.69-4.63 118.54-6.76 269.84-6.41 388.73 91.85 13.89 191.88 17.09 276.25-21.71ZM517.404 2059.82c219.641-8.18 519.026-9.25 699.506 8.19 0 0-.71 214.66-3.21 213.23-34.53-11.03-65.5-31.32-96.82-49.12-31.33-17.8-65.15-33.82-101.46-36.31-36.308-2.49-75.11 12.1-98.961 42.72-124.593-40.94-402.258-137.41-399.055-178.71Z" class="color190157 svgShape"/><path fill="#190157" d="m1057.08 2055.91 111.06-3.56a44.9 44.9 0 0 1 15.31 1.42c4.14 1.8 8.18 3.82 12.1 6.05 10.68 5.34 23.5 5.7 35.24 5.7 0 0 1.07 222.49 1.43 224.27a345.27 345.27 0 0 1-43.79-19.94l-131.35-213.94ZM731.35 2524.74c-122.102-80.81-239.22-169.81-341.742-274.11-23.851-24.56-46.99-49.84-62.653-79.74a190.99 190.99 0 0 1-12.103-29.55 95.738 95.738 0 0 1 .335-56.43 95.778 95.778 0 0 1 32.059-46.45 681.83 681.83 0 0 1 198.281-105.72s7.12 123.17 5.34 123.88c-5.696 12.1-7.119 29.9.356 40.94 7.476 11.03 22.071 14.24 33.818 20.64 103.591 54.11 188.67 110.71 295.465 148.45-59.449 74.4-116.05 167.31-149.156 258.09ZM964.874 755.152a4.986 4.986 0 0 1-4.984-4.271c-.712-3.916-12.459-15.308-17.799-20.647-5.339-5.34-6.763-6.408-8.543-8.544-1.78-2.136-4.272-5.34-6.764-7.831a90.783 90.783 0 0 1-9.255-10.68 47.7 47.7 0 0 1-11.036-24.207 27.058 27.058 0 0 1 11.392-26.342c3.203-2.492 7.831-2.848 13.883-1.424 6.052 1.424 19.935 7.832 23.851 14.595a5.342 5.342 0 0 1-1.78 7.12 5.694 5.694 0 0 1-7.476-1.78c-1.78-2.848-9.611-7.832-17.087-9.612-7.476-1.78-5.34-.356-5.696 0a17.094 17.094 0 0 0-6.407 16.019 38.795 38.795 0 0 0 8.899 19.223 106.274 106.274 0 0 0 8.544 9.968 78.298 78.298 0 0 1 7.119 8.188 84.044 84.044 0 0 0 7.832 7.475c11.391 11.392 19.579 19.579 20.647 26.343a5.696 5.696 0 0 1-4.272 6.407h-1.068Z" class="color190157 svgShape"/><path fill="#190157" d="M1097.3 890.424c-30.61 0-63.36-14.595-86.86-40.581-30.969-34.175-43.073-79.384-50.192-114.982a617.598 617.598 0 0 1-9.256-189.738 5.342 5.342 0 0 1 3.465-5.736 5.349 5.349 0 0 1 4.641.48 5.346 5.346 0 0 1 2.492 3.945 5.328 5.328 0 0 1-.275 2.379 619.43 619.43 0 0 0 9.256 186.534c7.12 34.174 18.867 77.604 47.699 109.642 28.84 32.038 72.62 45.21 106.08 32.75.63-.287 1.31-.44 2-.451.69-.01 1.38.122 2.01.39.64.268 1.21.665 1.69 1.165.47.501.84 1.095 1.07 1.744.5 1.328.48 2.794-.05 4.111a5.654 5.654 0 0 1-2.8 3.009 91.505 91.505 0 0 1-30.97 5.339ZM1177.4 877.965a5.729 5.729 0 0 1-2.38-.599 5.82 5.82 0 0 1-1.9-1.537 5.452 5.452 0 0 1-.9-1.879 5.399 5.399 0 0 1-.11-2.08c.1-.694.33-1.362.69-1.966.36-.603.83-1.13 1.39-1.551 36.31-28.478 62.65-75.468 74.05-132.069 11.39-56.601 7.83-105.014 5.69-156.632a5.694 5.694 0 0 1 4.99-5.695c.73-.049 1.46.053 2.15.299.69.247 1.32.632 1.85 1.133.54.501.96 1.106 1.25 1.778.29.673.44 1.397.44 2.129 2.14 52.33 4.27 106.439-6.05 159.124-11.75 59.093-39.51 108.218-77.96 138.477a4.975 4.975 0 0 1-3.2 1.068Z" class="color190157 svgShape"/><path fill="#190157" d="M1035 1002.92h-.71a5.385 5.385 0 0 1-3.45-1.93 5.359 5.359 0 0 1-1.18-3.77c4.57-42.946 4.69-86.25.36-129.221a5.701 5.701 0 0 1 4.98-5.696 5.347 5.347 0 0 1 5.7 4.628 647.913 647.913 0 0 1-.36 131.357 5.687 5.687 0 0 1-5.34 4.632ZM1210.86 993.66a5.366 5.366 0 0 1-3.55-1.304 5.332 5.332 0 0 1-1.79-3.324c-.71-10.679-1.78-22.071-3.2-34.174-3.21-35.242-7.12-75.112-6.06-105.726a5.352 5.352 0 0 1 5.34-5.34c1.45.091 2.81.731 3.8 1.789a5.63 5.63 0 0 1 1.54 3.907c-1.06 29.902 2.85 69.416 6.06 104.302 1.42 12.578 2.49 23.97 3.2 34.174.1.712.05 1.437-.15 2.127a5.122 5.122 0 0 1-1.03 1.867 5.009 5.009 0 0 1-3.8 1.702h-.36Z" class="color190157 svgShape"/><path fill="#190157" d="M1111.18 1027.83c-29.19 0-57.67-6.76-79.03-21.35-.59-.4-1.09-.91-1.48-1.5-.39-.59-.66-1.25-.79-1.94-.14-.7-.13-1.42.02-2.11.14-.69.43-1.348.83-1.93a6.022 6.022 0 0 1 3.48-2.034 6.037 6.037 0 0 1 3.99.61c48.42 32.394 126.73 21.004 169.45-9.968a5.7 5.7 0 0 1 7.48 1.068c.47.54.82 1.175 1.02 1.863.21.687.26 1.41.16 2.12a4.95 4.95 0 0 1-.75 1.992c-.38.602-.9 1.114-1.5 1.501-28.84 20.998-66.93 31.678-102.88 31.678ZM864.489 1388.09h-.356a5.443 5.443 0 0 1-2.018-.54 5.331 5.331 0 0 1-1.657-1.28 5.318 5.318 0 0 1-1.309-3.88c6.764-112.85 8.544-232.81 4.628-320.74a5.34 5.34 0 0 1 1.309-3.88 5.308 5.308 0 0 1 1.656-1.27c.631-.32 1.317-.5 2.019-.54a5.625 5.625 0 0 1 3.906 1.54 5.689 5.689 0 0 1 1.79 3.8c3.915 88.28 2.135 208.6-4.628 321.8a5.343 5.343 0 0 1-1.685 3.55 5.335 5.335 0 0 1-3.655 1.44Z" class="color190157 svgShape"/><path fill="#190157" d="m750.573 1616.98-2.136-.71a4.984 4.984 0 0 1-2.492-7.12l110.354-230.32c.263-.66.666-1.27 1.182-1.76a4.84 4.84 0 0 1 1.808-1.11 4.87 4.87 0 0 1 2.107-.26c.712.06 1.402.28 2.023.64a4.984 4.984 0 0 1 2.492 7.12l-110.354 230.32a5.316 5.316 0 0 1-4.984 3.2Z" class="color190157 svgShape"/><path fill="#190157" d="M847.046 1619.12h-.356a5.359 5.359 0 0 1-2.11-.57 5.288 5.288 0 0 1-1.705-1.37 5.33 5.33 0 0 1-1.169-4.11l17.443-230.68c.045-.7.229-1.39.54-2.02.311-.63.743-1.19 1.273-1.65a5.145 5.145 0 0 1 1.811-1.04c.666-.23 1.37-.32 2.072-.27.702.04 1.388.23 2.018.54a5.3 5.3 0 0 1 1.657 1.27c.463.53.817 1.15 1.042 1.81.224.67.315 1.37.267 2.07l-17.443 231.04a5.32 5.32 0 0 1-1.685 3.54 5.338 5.338 0 0 1-3.655 1.44ZM1405.58 1626.59c-1.28-.05-2.5-.54-3.47-1.38a5.697 5.697 0 0 1-1.87-3.24 1374.395 1374.395 0 0 1-18.51-241.72c0-.73.15-1.45.44-2.12.29-.68.71-1.28 1.25-1.78.53-.5 1.16-.89 1.85-1.14a5.63 5.63 0 0 1 2.16-.3c1.35.1 2.62.7 3.54 1.69.93.99 1.44 2.3 1.44 3.65-1.14 80.38 5.06 160.69 18.51 239.94a5.698 5.698 0 0 1-4.27 6.4h-1.07Z" class="color190157 svgShape"/><path fill="#190157" d="M1505.97 1596.69a5.317 5.317 0 0 1-4.99-3.56 689.386 689.386 0 0 0-116.76-211.09 5.367 5.367 0 0 1-1.18-3.89c.13-1.4.81-2.69 1.89-3.59a6.082 6.082 0 0 1 4.05-1.09c1.44.13 2.78.77 3.78 1.8 51.59 64 91.59 136.53 118.19 214.3.28.65.42 1.36.41 2.06-.02.71-.18 1.41-.48 2.05-.31.64-.74 1.21-1.28 1.67-.54.45-1.17.79-1.85.99l-1.78.35Z" class="color190157 svgShape"/><path fill="#190157" d="M1336.16 1870.09c-.44.08-.9.06-1.33-.06-.43-.12-.83-.35-1.16-.66a5.355 5.355 0 0 1-2.72-3.04c-.46-1.33-.38-2.8.23-4.08l157.34-299.73a5.34 5.34 0 0 1 3.05-2.72c1.33-.47 2.8-.39 4.07.23 1.24.74 2.15 1.93 2.54 3.31.4 1.39.25 2.88-.4 4.16l-156.99 299.74c-.47.82-1.14 1.51-1.95 2.01-.81.5-1.73.78-2.68.84ZM585.043 1725.56a3.818 3.818 0 0 1-1.532-.25 3.839 3.839 0 0 1-1.316-.82 5.29 5.29 0 0 1-1.484-1.49 5.303 5.303 0 0 1-.793-1.95 5.365 5.365 0 0 1 .853-4.04 935.24 935.24 0 0 1 66.212-83.65 5.748 5.748 0 0 1 3.774-1.93 5.717 5.717 0 0 1 4.058 1.22 6.042 6.042 0 0 1 1.618 3.85 6.064 6.064 0 0 1-1.262 3.98 860.187 860.187 0 0 0-65.501 82.94 5.675 5.675 0 0 1-4.627 2.14ZM616.371 1742.29a5.76 5.76 0 0 1-3.204-1.07 5.38 5.38 0 0 1-1.391-1.55 5.347 5.347 0 0 1-.578-4.05c.174-.68.48-1.31.901-1.87l50.194-69.07c.42-.56.947-1.03 1.551-1.39a5.485 5.485 0 0 1 1.965-.69c.694-.1 1.401-.06 2.08.12.68.17 1.318.48 1.879.9a5.687 5.687 0 0 1 1.068 7.47l-50.193 69.06a5.022 5.022 0 0 1-1.864 1.62c-.746.37-1.574.55-2.408.52ZM551.581 2054.84a5.312 5.312 0 0 1-3.776-1.57 5.319 5.319 0 0 1-1.564-3.77c-4.271-145.24-3.559-292.97 1.424-438.21 0-1.42.563-2.78 1.564-3.78 1.002-1 2.36-1.56 3.776-1.56a6.03 6.03 0 0 1 3.711 1.87 6.046 6.046 0 0 1 1.629 3.82c-4.984 145.24-5.696 292.62-1.424 437.86 0 1.42-.563 2.77-1.564 3.77a5.31 5.31 0 0 1-3.776 1.57Z" class="color190157 svgShape"/><path fill="#190157" d="M530.932 1628.37a5.33 5.33 0 0 1-3.656-1.43 5.363 5.363 0 0 1-1.684-3.55 5.67 5.67 0 0 1 1.409-3.79 5.736 5.736 0 0 1 3.575-1.91c232.099-9.25 467.759-9.25 699.854 0 .69 0 1.37.14 2 .41.63.28 1.19.68 1.66 1.18.47.5.83 1.09 1.06 1.74.22.64.32 1.33.27 2.01 0 1.42-.56 2.78-1.57 3.78-1 1-2.35 1.56-3.77 1.56-232.101-9.25-467.048-9.25-698.792 0h-.356ZM547.309 2061.96a5.339 5.339 0 0 1-3.656-1.44 5.318 5.318 0 0 1-1.684-3.54c-.011-1.4.49-2.75 1.409-3.8a5.723 5.723 0 0 1 3.575-1.9c166.955-5.34 310.415-4.63 462.417-3.91h163.4c1.41 0 2.77.56 3.77 1.56s1.57 2.36 1.57 3.78a5.346 5.346 0 0 1-5.34 5.33h-163.4c-152.002-.71-295.106-1.42-462.061 3.92ZM1188.07 1996.81h-.71l-8.9-1.77c-2.95-.64-5.61-2.25-7.55-4.57a13.552 13.552 0 0 1-3.13-8.25c-.36-3.08.33-6.19 1.94-8.83 1.61-2.64 4.06-4.67 6.96-5.77a392.156 392.156 0 0 0 70.13-38.09c-9.26-4.27-18.16-8.18-26.34-12.45-2.1-1.19-3.8-2.98-4.88-5.13a12.034 12.034 0 0 1-1.17-6.98c.4-2.4 1.55-4.61 3.27-6.34a11.77 11.77 0 0 1 6.34-3.27 422.794 422.794 0 0 0 110-33.46 5.324 5.324 0 0 1 7.11 2.49 5 5 0 0 1 .65 2.02c.06.72-.03 1.43-.26 2.11a5.12 5.12 0 0 1-1.11 1.81c-.5.51-1.1.92-1.77 1.18a427.621 427.621 0 0 1-112.84 34.53c-.1 0-.19.02-.28.05-.08.04-.16.09-.23.16-.06.06-.12.14-.15.23-.04.09-.05.18-.05.27.02.28.15.53.35.71 8.9 4.63 18.87 9.26 29.55 13.89l13.17 6.05-7.48 5.34a375.49 375.49 0 0 1-80.09 44.85c-.8.25-1.47.8-1.86 1.53-.4.73-.5 1.59-.28 2.39-.02.74.22 1.46.68 2.04.45.59 1.09 1 1.81 1.16l7.83 1.43c.71.08 1.39.31 2 .66.62.36 1.16.83 1.59 1.39a5.363 5.363 0 0 1 1.04 4 4.97 4.97 0 0 1-.51 1.88c-.29.59-.7 1.11-1.2 1.54-.49.43-1.07.76-1.69.97-.62.2-1.28.28-1.94.23ZM1175.97 2039.53h-1.78l-4.98-1.78c-2.45-.82-4.58-2.38-6.1-4.46a12.45 12.45 0 0 1-2.39-7.16c-.04-2.58.72-5.1 2.18-7.23 1.45-2.12 3.53-3.75 5.95-4.64a424.174 424.174 0 0 0 99.32-57.31c.56-.43 1.2-.73 1.88-.91.68-.17 1.38-.21 2.08-.11.69.1 1.36.33 1.96.69.61.36 1.13.83 1.55 1.39.43.56.73 1.2.91 1.88.17.68.21 1.39.11 2.08-.1.7-.34 1.36-.69 1.97-.36.6-.83 1.13-1.39 1.55a426.454 426.454 0 0 1-101.81 58.74c-1.07.35-1.43 1.42-1.07 1.78.35.35 0 1.42 1.07 1.78l4.98 1.78c.68.19 1.31.53 1.85.99.54.45.98 1.02 1.28 1.66.3.64.47 1.34.48 2.05.01.71-.13 1.41-.41 2.06-.42.97-1.12 1.79-2 2.36-.89.57-1.93.86-2.98.84ZM1192.35 2065.16h-1.78c-2.75-.12-5.38-1.17-7.45-2.98a12.094 12.094 0 0 1-3.94-6.98 12.77 12.77 0 0 1 1.2-8.15c1.29-2.51 3.37-4.53 5.91-5.74a482.01 482.01 0 0 0 105.02-64.79c1.1-.72 2.43-1.02 3.73-.83 1.31.2 2.49.87 3.33 1.89.84 1.01 1.28 2.3 1.22 3.62a5.267 5.267 0 0 1-1.52 3.51 492.437 492.437 0 0 1-107.5 66.57c-1.07.36-1.07 1.42-1.07 2.14.08.31.26.59.52.78.26.19.58.29.9.28 2.4.14 4.8-.1 7.12-.71 1.41-.22 2.85.1 4.04.89 1.18.79 2.03 2 2.37 3.38a5.337 5.337 0 0 1-3.92 6.41l-8.18.71ZM1223.67 2069.08a5.32 5.32 0 0 1-3.05-1 5.284 5.284 0 0 1-1.93-2.56c-.28-.65-.42-1.35-.41-2.06.01-.71.18-1.41.48-2.05.3-.64.74-1.2 1.28-1.66.54-.46 1.17-.8 1.85-.99 50.6-19.23 95.1-51.68 128.87-93.98a5.312 5.312 0 0 1 7.47-1.07 5.35 5.35 0 0 1 2.09 3.52c.2 1.4-.17 2.82-1.02 3.95a312.16 312.16 0 0 1-133.85 97.54l-1.78.36ZM1126.49 1063.79c-1.21.01-2.38-.42-3.29-1.2a4.976 4.976 0 0 1-1.69-3.07 5.287 5.287 0 0 1 .77-4.12c.4-.6.91-1.11 1.51-1.5.61-.4 1.28-.67 1.99-.79a225.75 225.75 0 0 0 98.25-45.21 5.693 5.693 0 0 1 7.47.71c.43.56.73 1.2.91 1.88.17.68.21 1.39.11 2.08-.1.69-.34 1.36-.69 1.96a5.33 5.33 0 0 1-1.39 1.56 237.85 237.85 0 0 1-102.88 47.7h-1.07Z" class="color190157 svgShape"/><path fill="#190157" d="M1390.63 1920.64c-.83.03-1.66-.15-2.41-.53-.75-.37-1.39-.93-1.86-1.61a5.693 5.693 0 0 1-1.05-3.87c.13-1.38.75-2.66 1.76-3.61a775.135 775.135 0 0 0 229.25-299.73 116.025 116.025 0 0 0 3.92-81.17c-21.36-65.85-43.43-127.08-67.99-186.89-22.79-52.68-48.06-105.01-79.03-164.82-16.38-31.68-33.11-61.94-55.89-87.21-39.16-43.79-101.46-62.3-161.26-79.74l-46.99-14.24a5.71 5.71 0 0 1-2.87-2.782 5.65 5.65 0 0 1-.33-3.982 5.314 5.314 0 0 1 2.63-3.205 5.332 5.332 0 0 1 4.13-.355c14.95 4.984 30.26 9.612 46.28 14.244 61.58 18.15 124.95 36.66 166.6 82.94 23.13 25.99 40.22 57.31 56.95 89.35 31.33 59.81 56.6 112.49 79.74 165.53 24.57 60.16 46.99 121.75 68.35 187.96a126.71 126.71 0 0 1-4.27 88.64 787.04 787.04 0 0 1-232.46 303.65c-.4.45-.89.81-1.45 1.06-.55.24-1.15.37-1.75.37Z" class="color190157 svgShape"/><path fill="#190157" d="M1233.64 1899.99a4.939 4.939 0 0 1-3.63-1.21c-.5-.43-.9-.95-1.2-1.54-.29-.58-.46-1.22-.51-1.88a564.704 564.704 0 0 1 7.48-192.58c6.05-27.06 14.59-57.32 36.66-78.32a79.983 79.983 0 0 1 34.81-19.59 80.085 80.085 0 0 1 39.95-.35 127.21 127.21 0 0 1 52.74 18.95 127.123 127.123 0 0 1 39.46 39.79c.37.61.62 1.28.73 1.99.12.7.09 1.42-.07 2.12-.17.69-.47 1.35-.89 1.92-.42.58-.94 1.07-1.55 1.45-.61.37-1.29.62-1.99.73-.71.12-1.42.09-2.12-.07-.69-.17-1.35-.47-1.93-.89a5.75 5.75 0 0 1-1.44-1.55 115.266 115.266 0 0 0-36.05-36.5 115.296 115.296 0 0 0-48.32-17.26h-.71a67.619 67.619 0 0 0-65.14 17.09c-19.94 18.87-28.12 47.35-33.46 72.62a545.761 545.761 0 0 0-7.48 189.38 5.36 5.36 0 0 1-1.18 3.77 5.337 5.337 0 0 1-3.45 1.93h-.71ZM1350.4 2456.39c-41.2.09-82.27-4.44-122.46-13.53l-3.91-.71 2.85-377.34c0-1.42.56-2.78 1.56-3.78s2.36-1.56 3.78-1.56c1.41 0 2.77.56 3.77 1.56s1.57 2.36 1.57 3.78l-2.85 368.79a555.334 555.334 0 0 0 280.51-12.81c-22.43-209.68-33.46-401.19-33.46-585.24 0-1.41.56-2.77 1.56-3.77s2.36-1.57 3.78-1.57c1.41 0 2.77.57 3.77 1.57 1.01 1 1.57 2.36 1.57 3.77 0 184.76 11.03 377.34 33.82 588.44v4.27l-3.92 1.43a567.392 567.392 0 0 1-171.94 26.7ZM879.083 2271.63l-2.136-.71a2383.51 2383.51 0 0 1-328.571-168.74 5.434 5.434 0 0 1-2.438-3.36 5.452 5.452 0 0 1 2.1-5.67 5.663 5.663 0 0 1 1.927-.88 5.597 5.597 0 0 1 2.119-.08c.705.11 1.38.36 1.988.74a2382.784 2382.784 0 0 0 326.79 168.38c.65.23 1.244.6 1.744 1.07.501.48.898 1.05 1.165 1.68a4.984 4.984 0 0 1-.061 4.01 4.968 4.968 0 0 1-1.738 2.53c-.831.64-1.842 1-2.889 1.03ZM770.153 2489.14l-2.136-.71a5.014 5.014 0 0 1-1.743-1.08 4.888 4.888 0 0 1-1.166-1.68c-.267-.64-.4-1.32-.39-2.01.011-.69.164-1.37.451-2a1118.21 1118.21 0 0 1 107.863-190.8 5.724 5.724 0 0 1 3.465-2.15c1.38-.26 2.808 0 4.01.72a5.702 5.702 0 0 1 1.424 7.48 1137.54 1137.54 0 0 0-107.15 189.02c-.397.92-1.04 1.7-1.858 2.27-.817.56-1.777.89-2.77.94Z" class="color190157 svgShape"/><path fill="#190157" d="M1035.36 2660.72c-14.6 0-30.61-9.61-47.346-29.19l-31.682-39.51c-17.443-22.07-35.598-44.86-55.177-65.5-36.666-38.45-72.264-62.66-109.642-74.76a5.327 5.327 0 0 1-3.8-4.66 5.32 5.32 0 0 1 .24-2.1c.195-.68.533-1.32.991-1.86a5.072 5.072 0 0 1 1.666-1.28c.64-.3 1.338-.46 2.046-.47.708-.02 1.41.12 2.061.4 39.158 12.46 76.18 37.74 113.914 77.25 19.935 21 38.446 44.14 55.889 66.21a1680.859 1680.859 0 0 0 31.682 39.16c17.448 20.65 32.748 28.84 45.918 24.92 13.17-3.92 19.58-17.44 25.28-31.68a645.197 645.197 0 0 0 23.49-65.15c4.63-15.3 8.9-31.68 4.27-46.28-4.62-14.59-23.13-27.76-40.93-38.44a177.337 177.337 0 0 1-28.84-19.22c-28.832-24.92-37.732-64.08-44.139-102.17-3.916-23.5-8.544-43.43-23.495-55.53-14.951-12.11-46.634-9.97-71.196-4.63a5.383 5.383 0 0 1-3.72-.89 5.362 5.362 0 0 1-2.17-3.15 5.364 5.364 0 0 1 .494-3.8 5.369 5.369 0 0 1 2.904-2.49c27.055-6.05 58.025-11.03 80.096 6.77 22.071 17.8 24.206 42.36 27.41 61.94 6.408 35.95 14.596 73.33 40.586 95.76 8.56 6.98 17.73 13.17 27.41 18.51 18.86 11.03 38.44 22.43 45.56 44.14 7.12 21.72 1.07 36.31-3.91 52.69-7.12 22.42-14.95 44.49-23.85 65.85-8.9 21.36-15.31 32.75-32.04 37.74-3.22 1.02-6.59 1.5-9.97 1.42ZM1223.32 2682.08c-21.72 0-44.5-3.2-56.25-21s-8.54-36.67 5.34-64.08c26.34-53.4 64.08-100.39 100.39-145.95.41-.63.95-1.16 1.58-1.56.63-.4 1.34-.67 2.08-.78.74-.11 1.5-.06 2.22.14.72.2 1.39.55 1.97 1.03.58.47 1.05 1.07 1.38 1.74.33.67.52 1.4.55 2.15.04.75-.09 1.49-.37 2.19-.27.7-.69 1.33-1.23 1.85-35.95 44.85-72.97 91.84-99.31 144.17-11.75 23.5-13.53 40.94-5.7 53.04 7.83 12.11 32.75 16.74 53.75 16.38 21.01-.36 42.72-1.07 61.94-8.54 24.92-9.62 45.21-29.91 63.01-47.71l122.46-122.45c12.82-13.17 26.34-31.33 17.8-45.57-.37-.6-.6-1.27-.69-1.96-.1-.7-.04-1.4.16-2.08.21-.67.55-1.29 1.01-1.82.45-.53 1.02-.96 1.66-1.26 1.18-.67 2.59-.86 3.91-.53a5.37 5.37 0 0 1 3.2 2.31c9.62 15.66 2.5 35.96-19.57 58.38l-122.11 122.46c-18.86 18.87-39.87 39.87-66.92 50.19-21.36 7.83-44.85 8.55-65.5 9.26h-6.76ZM1149.63 2271.99h-1.78c-18.16-6.41-34.53-16.38-50.55-25.99l-15.66-9.25c-17.8-10.33-41.3-21.72-65.86-21.72h-1.42c-28.482.36-54.825 16.38-77.964 30.62a5.692 5.692 0 0 1-7.475-1.78 5.7 5.7 0 0 1 1.78-7.48c23.138-13.88 51.973-31.68 83.659-32.04 31.68-.35 53.04 12.11 72.62 23.14l16.02 9.26c15.3 9.25 31.32 19.22 48.41 24.92 1.06.55 1.92 1.43 2.46 2.5.54 1.08.72 2.3.52 3.48a5.688 5.688 0 0 1-4.76 4.69v-.35ZM354.367 2238.17c-1.604 0-3.14-.64-4.272-1.78-18.867-23.5-38.09-47.35-50.193-75.82-12.104-28.48-15.308-65.15-3.56-91.14 11.747-25.98 33.818-44.14 56.601-59.8a741.502 741.502 0 0 1 190.806-95.05 5.444 5.444 0 0 1 4.171.26 5.457 5.457 0 0 1 2.77 3.12 5.485 5.485 0 0 1-.253 4.18 5.49 5.49 0 0 1-3.128 2.77 713.911 713.911 0 0 0-187.959 93.62c-21.714 14.95-43.073 31.68-53.397 55.18-10.323 23.49-8.899 53.39 3.56 82.58 12.459 29.19 30.615 50.55 48.77 73.34a4.983 4.983 0 0 1-.712 7.47 5.684 5.684 0 0 1-3.204 1.07ZM1870.14 1937.01h-.36c-.7-.05-1.39-.23-2.02-.54-.63-.31-1.19-.74-1.66-1.27-.46-.53-.81-1.15-1.04-1.81-.22-.67-.31-1.37-.26-2.08 14.24-117.47 29.9-250.25-12.11-369.5-22.07-61.23-58.73-116.77-93.98-170.88-13.52-20.29-27.41-41.29-40.22-62.29-38.8-63.72-88.29-160.19-66.21-263.07l10.32 1.78c-5.7 56.24 11.75 118.89 52.68 186.18 17.8 29.54 38.45 57.66 58.38 85.08 19.94 27.41 38.45 52.68 55.54 80.09 50.9 82.23 84.72 176.57 100.38 281.23 16.38-59.1 25.28-121.39 33.82-181.91 13.53-96.12 27.41-195.43 72.62-283.01a444.649 444.649 0 0 1 191.52-190.8 405.124 405.124 0 0 1 272.68-35.96l-1.42 10.33c-181.91-5.34-361.32 107.15-436.08 273.39-39.51 88.64-50.19 187.6-60.87 283.01-7.12 64.79-14.24 131.71-30.62 195.07 33.82-53.04 74.76-111.77 127.45-156.27 69.06-58.38 153.42-83.66 225.33-68.35 71.91 15.31 131.71 66.21 173.01 142.04 41.29 75.82 53.75 151.29 63.72 220.35l-10.32 2.14c-19.58-70.13-39.52-142.4-80.1-203.98-44.85-67.28-110.35-109.64-175.85-112.49-43.79-1.78-90.78 12.81-139.55 43.78a421.193 421.193 0 0 0-125.52 125.32 420.976 420.976 0 0 0-62.79 165.88 5.393 5.393 0 0 1-2.06 3.58 5.363 5.363 0 0 1-4 1.04c-.69-.08-1.36-.31-1.96-.66a4.996 4.996 0 0 1-2.31-5.39 429.673 429.673 0 0 1 64.13-170.23 429.77 429.77 0 0 1 128.81-128.44c50.55-32.39 99.68-47.7 145.96-45.56 68.7 3.2 137.41 46.99 184.04 117.47a502.46 502.46 0 0 1 53.04 111.78 487.519 487.519 0 0 0-44.85-119.61c-39.52-72.62-100.03-122.46-165.53-136.7-65.5-14.24-149.87 9.97-216.08 66.22-66.22 56.24-108.58 126.73-145.6 186.17l-22.78 37.03 13.17-41.65c23.85-73.34 32.39-152.72 40.58-229.61 10.68-96.47 21.71-196.15 61.94-286.21 67.99-151.65 221.42-259.87 385.88-277.31a395.1 395.1 0 0 0-206.82 43.43 435.333 435.333 0 0 0-186.54 185.82c-44.49 86.15-58.38 184.76-71.55 279.8-9.97 69.06-19.93 140.26-41.29 207.18l-7.48 23.5-3.2-24.21c-13.53-113.2-48.06-214.3-102.17-301.51-16.73-27.41-36.31-53.76-54.82-79.39-18.51-25.63-40.94-55.89-59.09-85.79a407.584 407.584 0 0 1-45.57-102.88c9.61 65.15 40.94 123.53 67.28 166.96 12.82 20.64 26.35 41.65 39.87 61.94 35.6 54.46 72.62 110.71 95.05 173.01 43.07 121.74 27.05 255.95 12.82 374.13-.05.66-.22 1.3-.52 1.88-.29.59-.7 1.12-1.19 1.55-.5.43-1.08.75-1.7.96-.62.21-1.28.29-1.93.24ZM1388.49 1383.82c-.65.04-1.31-.04-1.93-.24-.62-.21-1.2-.54-1.7-.97-.49-.43-.9-.95-1.19-1.54-.3-.59-.47-1.23-.52-1.88-8.54-95.76-18.51-218.93-19.22-321.81 0-1.42.56-2.77 1.57-3.78 1-1 2.36-1.56 3.77-1.56 1.42 0 2.78.56 3.78 1.56a5.36 5.36 0 0 1 1.56 3.78c.71 102.52 10.68 225.34 19.22 320.74.05.7-.04 1.41-.26 2.07-.23.67-.58 1.28-1.04 1.81-.47.53-1.03.96-1.66 1.28-.63.31-1.32.49-2.02.54h-.36ZM607.471 1621.26h-1.424a5.347 5.347 0 0 1-3.916-6.41c35.955-133.85 90.776-280.16 154.14-412.58 21.715-45.57 46.634-93.63 86.148-129.23 39.514-35.59 98.963-53.04 154.14-67.28l33.461-9.252a5.695 5.695 0 0 1 6.76 3.912c.33 1.37.1 2.81-.64 4.01a5.344 5.344 0 0 1-3.27 2.4l-33.463 9.26c-54.11 14.24-109.999 28.83-149.869 64.79-39.869 35.95-62.296 81.16-83.655 126.01a2430.272 2430.272 0 0 0-153.428 410.45 5.367 5.367 0 0 1-1.848 2.78c-.897.7-1.996 1.1-3.136 1.14ZM928.922 1894.65a56.949 56.949 0 0 1-31.644-9.6 57.005 57.005 0 0 1-20.978-25.56 56.977 56.977 0 0 1-3.241-32.91 56.927 56.927 0 0 1 15.588-29.16 56.949 56.949 0 0 1 62.071-12.35 56.935 56.935 0 0 1 25.562 20.98 56.946 56.946 0 0 1-7.083 71.91 56.93 56.93 0 0 1-40.275 16.69Zm0-103.24c-9.153 0-18.1 2.72-25.711 7.8a46.279 46.279 0 0 0-19.677 47.51 46.239 46.239 0 0 0 12.665 23.69 46.259 46.259 0 0 0 23.695 12.67 46.346 46.346 0 0 0 26.738-2.63 46.337 46.337 0 0 0 20.768-17.05 46.277 46.277 0 0 0-5.755-58.43 46.279 46.279 0 0 0-32.723-13.56Z" class="color190157 svgShape"/><path fill="#190157" d="M949.212 1859.76c-.661.03-1.32-.08-1.934-.32a4.665 4.665 0 0 1-1.626-1.1l-40.226-34.89a5.333 5.333 0 0 1-.301-7.13 5.366 5.366 0 0 1 3.331-1.89 5.405 5.405 0 0 1 3.734.83l40.582 35.25a4.946 4.946 0 0 1 1.868 3.65c.034.71-.084 1.42-.345 2.08a5 5 0 0 1-1.167 1.74 5.712 5.712 0 0 1-3.916 1.78Z" class="color190157 svgShape"/><path fill="#190157" d="M931.769 1837.69h-1.78a5.002 5.002 0 0 1-1.744-1.07c-.5-.48-.897-1.05-1.165-1.69a4.968 4.968 0 0 1 .061-4 72.58 72.58 0 0 1 12.815-21.36c.415-.58.949-1.06 1.566-1.42a5.093 5.093 0 0 1 2.01-.64c.709-.06 1.423.02 2.096.25.672.23 1.288.61 1.804 1.1a5.33 5.33 0 0 1 .712 7.47 76.329 76.329 0 0 0-11.391 18.51 5.006 5.006 0 0 1-2.041 2.22c-.892.51-1.92.73-2.943.63ZM1254.64 749.812a3.9 3.9 0 0 1-2.84-.712 5.682 5.682 0 0 1-2.34-3.392 5.692 5.692 0 0 1 .56-4.083l29.54-45.566a44.35 44.35 0 0 0 8.19-16.375c.71-2.308.75-4.769.12-7.099a12.846 12.846 0 0 0-3.68-6.072c-5.7-4.628-15.66-.356-21 2.136a5.007 5.007 0 0 1-4.04.525 5.095 5.095 0 0 1-1.83-1.002 5.01 5.01 0 0 1-1.25-1.659 5.378 5.378 0 0 1-.38-3.993 5.35 5.35 0 0 1 2.51-3.127c13.53-7.12 24.92-7.476 32.75-1.424a24.872 24.872 0 0 1 6.95 10.92 25 25 0 0 1 .53 12.931 71.105 71.105 0 0 1-9.61 20.291l-29.9 45.209a4.323 4.323 0 0 1-1.74 1.927c-.77.447-1.65.644-2.54.565ZM940.311 556.159a5.341 5.341 0 0 1-4.984-3.56 5.35 5.35 0 0 1 .355-4.132 5.348 5.348 0 0 1 3.205-2.632 167.655 167.655 0 0 0 88.283-66.212 5.32 5.32 0 0 1 3.44-2.278c.7-.132 1.41-.125 2.1.021.7.147 1.35.43 1.94.833a5.71 5.71 0 0 1 2.14 3.465 5.69 5.69 0 0 1-.72 4.01 179.785 179.785 0 0 1-93.979 70.129l-1.78.356Z" class="color190157 svgShape"/><path fill="#190157" d="M1136.1 556.158c-42 0-90.06-27.411-114.27-56.957a5.352 5.352 0 0 1-.83-3.734c.2-1.305.87-2.491 1.88-3.331a5.349 5.349 0 0 1 7.14.301c23.5 28.479 70.48 54.821 110 53.041a88.932 88.932 0 0 1-21-50.549c-.05-.702.04-1.406.26-2.072.23-.667.58-1.282 1.04-1.811a5.35 5.35 0 0 1 3.68-1.813c.71-.102 1.44-.05 2.13.154.69.204 1.32.555 1.86 1.028.54.474.98 1.059 1.27 1.715.29.656.44 1.368.44 2.087a77.229 77.229 0 0 0 25.27 51.261l8.19 7.12-10.68 2.136c-5.42.843-10.89 1.319-16.38 1.424Z" class="color190157 svgShape"/><path fill="#190157" d="M1259.63 556.159h-.36c-21.72-.356-56.96-4.984-79.03-12.815-22.07-7.832-52.68-30.615-59.09-54.821a4.833 4.833 0 0 1-.23-2.032c.06-.685.27-1.35.6-1.952.34-.602.79-1.129 1.34-1.546a5.013 5.013 0 0 1 1.85-.878 5.341 5.341 0 0 1 5.77 1.692c.45.55.79 1.185.99 1.868 4.63 18.155 31.69 40.226 52.33 47.345 20.65 7.12 54.47 12.104 75.83 12.46a5.35 5.35 0 0 1 5.34 5.339 5.35 5.35 0 0 1-5.34 5.34ZM931.411 659.038a5.7 5.7 0 0 1-4.984-3.916c-16.019-55.177-20.291-169.091 9.967-215.013a195.09 195.09 0 0 1 136.346-85.079 5.336 5.336 0 0 1 5.38 2.629c.35.615.58 1.295.67 1.999a5.356 5.356 0 0 1-1.18 3.769 5.351 5.351 0 0 1-3.45 1.926 184.778 184.778 0 0 0-73.14 26.527 184.8 184.8 0 0 0-55.726 54.281c-27.411 41.65-24.207 152.004-8.544 206.113a5.338 5.338 0 0 1-3.915 6.408l-1.424.356Z" class="color190157 svgShape"/><path fill="#190157" d="M1280.98 659.037h-.35a5.694 5.694 0 0 1-3.58-1.9 5.745 5.745 0 0 1-1.41-3.795c3.56-46.99-3.91-155.208-30.25-203.622-23.14-42.362-70.49-87.215-133.5-87.215h-12.1l8.19-9.256c3.91-4.272 8.9-9.611 9.61-15.307a9.2 9.2 0 0 0-.25-3.973 9.095 9.095 0 0 0-1.89-3.503 3.914 3.914 0 0 0-3.2-1.779 6.774 6.774 0 0 0-5.34 3.203 33.75 33.75 0 0 0-3.92 8.9 6.344 6.344 0 0 1-3.01 2.811c-1.29.58-2.73.718-4.11.393a5.651 5.651 0 0 1-2.86-2.782 5.707 5.707 0 0 1-.34-3.982 39.656 39.656 0 0 1 5.7-11.747 17.643 17.643 0 0 1 5.91-5.283 17.769 17.769 0 0 1 7.61-2.193 14.584 14.584 0 0 1 11.75 5.34 22.439 22.439 0 0 1 4.63 16.375 30.31 30.31 0 0 1-5.34 12.459c61.94 4.628 108.22 49.838 131.71 92.199 27.77 50.55 35.24 161.616 31.68 209.673a5.341 5.341 0 0 1-1.68 3.548 5.34 5.34 0 0 1-3.66 1.436ZM1099.43 815.312a119.99 119.99 0 0 1-38.8-6.407 5.721 5.721 0 0 1-3.08-2.696 5.69 5.69 0 0 1-.48-4.068c.2-.681.54-1.312.99-1.852a5.012 5.012 0 0 1 3.72-1.758c.7-.013 1.41.126 2.06.406a114.603 114.603 0 0 0 74.75-1.424 5.36 5.36 0 0 1 4.1.076 5.32 5.32 0 0 1 2.84 2.95 5.34 5.34 0 0 1-.07 4.098 5.365 5.365 0 0 1-2.95 2.844 119.659 119.659 0 0 1-43.08 7.831ZM998.337 632.338a5.69 5.69 0 0 1-3.916-1.78 5.337 5.337 0 0 1 .356-7.475 58.731 58.731 0 0 1 72.973-5.696c.59.398 1.09.906 1.48 1.497.38.591.65 1.252.78 1.946.14.694.13 1.408-.01 2.1a5.643 5.643 0 0 1-.82 1.933 5.43 5.43 0 0 1-1.5 1.472c-.59.388-1.25.656-1.95.788a5.41 5.41 0 0 1-4.03-.836 49.11 49.11 0 0 0-30.61-8.188 50.54 50.54 0 0 0-29.19 12.815c-.46.478-1.01.853-1.63 1.098a4.61 4.61 0 0 1-1.933.326ZM1169.92 627.354a35.952 35.952 0 0 1-16.73-3.915c-7.12-3.916-13.89-12.46-11.75-21.715a5.72 5.72 0 0 1 2.37-3.383 5.712 5.712 0 0 1 4.04-.889c1.36.337 2.54 1.2 3.27 2.399.74 1.2.97 2.64.64 4.009-.03 2.108.56 4.18 1.7 5.954a10.688 10.688 0 0 0 4.71 4.013c5.34 3.204 12.82 3.56 22.78 1.424l6.41-1.424c7-1.694 14.16-2.649 21.36-2.848a5.35 5.35 0 0 1 3.68 1.813c.46.529.81 1.144 1.04 1.811.22.666.31 1.37.26 2.072a5.341 5.341 0 0 1-1.68 3.548 5.339 5.339 0 0 1-3.65 1.436 86.478 86.478 0 0 0-18.52 2.848l-6.76 1.424a71.238 71.238 0 0 1-13.17 1.423ZM1096.94 761.203c-7.83 0-16.37-3.204-18.86-11.391a22.72 22.72 0 0 1 1.07-13.171l18.51-63.009a5.659 5.659 0 0 1 2.6-3.301 5.702 5.702 0 0 1 4.16-.615 5.649 5.649 0 0 1 3.08 2.696c.66 1.25.83 2.7.48 4.068l-18.51 63.008a11.05 11.05 0 0 0-1.07 7.12c1.07 3.204 6.41 4.272 11.04 3.56l5.34-.712a35.925 35.925 0 0 1 16.37-.712c.74.098 1.46.351 2.1.743.63.391 1.18.912 1.61 1.53.42.617.71 1.317.84 2.053a5.2 5.2 0 0 1-.06 2.221 5.22 5.22 0 0 1-.96 2.004 5.25 5.25 0 0 1-1.69 1.44 5.322 5.322 0 0 1-4.33.332 27.086 27.086 0 0 0-11.75.712l-6.05 1.068-3.92.356ZM1174.91 670.785c6.68 0 12.1-7.651 12.1-17.088 0-9.437-5.42-17.087-12.1-17.087-6.69 0-12.11 7.65-12.11 17.087s5.42 17.088 12.11 17.088ZM1035 670.785c6.69 0 12.11-7.651 12.11-17.088 0-9.437-5.42-17.087-12.11-17.087-6.68 0-12.1 7.65-12.1 17.087s5.42 17.088 12.1 17.088ZM1917.84 1983.29h-9.62a443.523 443.523 0 0 1-254.17-88.29 12.748 12.748 0 0 1-3.98-5.07 12.814 12.814 0 0 1 1.22-12.44c1.25-1.79 2.93-3.24 4.9-4.2a450.738 450.738 0 0 1 166.96-40.23c18.6-1.78 37.36-1.42 55.88 1.07.71.09 1.39.32 2 .67.62.35 1.16.82 1.59 1.39.43.56.74 1.2.92 1.89.18.69.22 1.4.12 2.1a5.697 5.697 0 0 1-2.14 3.48 5.71 5.71 0 0 1-3.91 1.15 226.383 226.383 0 0 0-53.75-1.07 441.904 441.904 0 0 0-163.04 39.16 1.793 1.793 0 0 0-1.07 1.78c-.36.36 0 1.07.71 1.78a433.597 433.597 0 0 0 247.76 86.15c92.2 2.13 180.84-26.7 249.9-80.81.72-.36.72-1.42.72-1.78-.04-.31-.16-.6-.35-.85-.19-.25-.44-.45-.72-.57a515.119 515.119 0 0 0-135.28-42.36l-32.75-4.28c-.7-.08-1.38-.31-1.99-.66-.62-.36-1.16-.83-1.59-1.39-.43-.57-.74-1.21-.92-1.89-.18-.69-.22-1.41-.12-2.11.08-.69.31-1.36.66-1.96a4.996 4.996 0 0 1 5.39-2.31l33.1 4.27a512.419 512.419 0 0 1 137.77 43.08 12.787 12.787 0 0 1 7.47 9.96c.18 2.17-.19 4.34-1.06 6.32-.87 1.99-2.21 3.73-3.92 5.07-68.35 53.76-155.56 82.95-246.69 82.95Z" class="color190157 svgShape"/><path fill="#190157" d="M1906.8 1944.49a156.08 156.08 0 0 1-56.96-11.04 5.488 5.488 0 0 1-2.9-2.97c-.26-.66-.39-1.37-.38-2.08.01-.71.15-1.42.44-2.07.28-.65.68-1.25 1.19-1.74.51-.5 1.11-.89 1.77-1.16.67-.26 1.37-.39 2.08-.39.72.01 1.42.16 2.07.44a144.897 144.897 0 0 0 62.47 9.86c21.29-1.36 42.02-7.4 60.7-17.69a5.345 5.345 0 0 1 4.06-.53c.68.18 1.31.49 1.87.92.55.43 1.02.96 1.37 1.57.35.61.58 1.28.67 1.97.09.7.05 1.4-.14 2.08-.18.68-.49 1.32-.92 1.87-.43.56-.96 1.03-1.57 1.38a155.208 155.208 0 0 1-75.82 19.58ZM2143.89 2134.22h-.72a5.705 5.705 0 0 1-3.47-2.13 5.65 5.65 0 0 1-1.15-3.92c9.25-78.31 16.37-157.7 21-236.01.04-.71.23-1.39.54-2.02.31-.63.74-1.2 1.27-1.66a5.375 5.375 0 0 1 3.88-1.31c.71-.06 1.41.04 2.07.29.66.25 1.25.65 1.73 1.16.48.52.84 1.14 1.04 1.81.21.68.26 1.39.15 2.08-4.63 79.03-11.75 158.41-21.01 236.73a5.651 5.651 0 0 1-1.76 3.46c-.98.91-2.24 1.45-3.57 1.52ZM2122.17 2308.65c-.36 0-.71 0-.71-.35-.69-.04-1.36-.23-1.98-.54-.61-.32-1.15-.76-1.59-1.29-.43-.54-.75-1.16-.93-1.82-.19-.67-.23-1.37-.13-2.05l16.73-129.22c-.02-.71.12-1.41.42-2.06.3-.64.74-1.21 1.29-1.66a4.7 4.7 0 0 1 1.89-.92 4.8 4.8 0 0 1 2.1.01c.68.05 1.36.23 1.97.54.61.32 1.15.76 1.59 1.29.43.54.75 1.16.94 1.83.18.66.22 1.36.12 2.04l-16.73 129.58a5.335 5.335 0 0 1-1.66 3.21c-.91.84-2.08 1.34-3.32 1.41Z" class="color190157 svgShape"/><path fill="#190157" d="M1902.17 2347.1c-66.86.09-133.39-9.38-197.57-28.12l-3.2-1.07v-3.56c-20.65-149.51-37.73-292.62-54.11-431.09-.1-1.46.36-2.9 1.29-4.02a5.674 5.674 0 0 1 3.7-2.04c1.36-.1 2.7.32 3.76 1.19 1.06.86 1.75 2.09 1.93 3.44 16.38 137.41 33.11 279.45 53.4 427.89a696.952 696.952 0 0 0 408.31-7.83c.65-.28 1.35-.42 2.06-.41.71.02 1.4.18 2.04.48.64.31 1.21.74 1.67 1.28.46.54.8 1.17.99 1.85a5.391 5.391 0 0 1-.35 4.14c-.33.63-.79 1.18-1.34 1.64-.55.45-1.18.78-1.87.99a699.99 699.99 0 0 1-220.71 35.24ZM1957.71 2025.65a5.34 5.34 0 0 1-5.34-4.98c-.05-.7.04-1.41.26-2.08.23-.66.58-1.28 1.04-1.81.47-.53 1.03-.96 1.66-1.27.63-.31 1.32-.49 2.02-.54a415.108 415.108 0 0 0 187.25-58.02c.6-.39 1.28-.65 1.98-.77.71-.12 1.43-.1 2.13.07.7.16 1.36.47 1.93.9.58.42 1.07.96 1.43 1.58.37.59.61 1.26.7 1.96a5.002 5.002 0 0 1-2.83 5.16c-58.13 35.27-124 55.8-191.88 59.8h-.35ZM2036.74 2076.55a5.33 5.33 0 0 1-3.66-1.43c-.99-.93-1.59-2.2-1.68-3.55.07-1.43.65-2.78 1.62-3.82.98-1.05 2.3-1.71 3.72-1.87 34.17-.93 67.38-11.55 95.76-30.62 1.14-.7 2.51-.95 3.83-.68 1.32.26 2.5 1.01 3.28 2.1.41.59.69 1.24.84 1.94.14.69.15 1.4.02 2.1-.13.7-.4 1.36-.79 1.95-.4.59-.9 1.1-1.49 1.49a190.033 190.033 0 0 1-101.1 32.39h-.35ZM1855.54 1571.77h-.36c-91.48-2.84-179.77-64.07-214.65-148.44l-4.63-11.75 11.39 4.63c16.41 6.2 33.32 10.96 50.55 14.24-40.23-23.5-75.11-61.94-100.39-111.42-25.27-49.48-42.36-114.99-55.89-173.37l-4.27-17.8 13.17 12.82c9.28 9.22 19.69 17.23 30.97 23.85-23.14-28.12-31.32-67.64-28.83-101.1 4.27-49.84 28.83-96.825 48.77-134.559l.71-1.068c21.36-40.938 43.79-83.299 49.13-128.865l2.49-21.359 7.47 19.935a1964.343 1964.343 0 0 0 111.42 236.726l1.78 3.21-43.07 49.12a137.98 137.98 0 0 0 38.45-23.49l3.91-3.21 3.56 3.56a536.655 536.655 0 0 1 95.41 144.53c.29.65.45 1.36.46 2.07.01.72-.12 1.43-.38 2.09-.27.67-.66 1.27-1.17 1.78-.5.51-1.1.91-1.76 1.18-1.33.5-2.8.48-4.11-.05a5.646 5.646 0 0 1-3.01-2.8c-22.39-50.48-52.8-97-90.07-137.76a141.365 141.365 0 0 1-56.6 28.12l-16.73 4.27 62.3-70.84a1884.616 1884.616 0 0 1-102.88-216.791c-8.54 40.226-28.12 77.248-47.34 113.558v1.068c-19.58 36.666-43.79 82.585-47.71 130.285-3.56 42.01 12.11 94.34 54.11 116.41l-4.27 9.61a171.568 171.568 0 0 1-57.31-30.61c12.46 52.68 25.98 106.08 51.26 154.85 30.26 58.74 74.76 101.81 124.59 120.32l34.53 12.82-36.66-2.5c-25.19-1.8-50.06-6.7-74.05-14.59 36.31 74.75 116.76 128.15 200.06 130.64 1.42 0 2.78.57 3.78 1.57s1.56 2.36 1.56 3.77c.01.74-.14 1.46-.43 2.13-.29.67-.72 1.28-1.25 1.78-.54.5-1.17.89-1.86 1.13-.69.25-1.42.35-2.15.3ZM1957.71 1556.47a5.737 5.737 0 0 1-3.39-1.25 5.7 5.7 0 0 1-1.95-3.03c-19.94-80.8-29.19-210.74-10.68-288.34 5.34-32.4 11.39-65.5 17.09-97.54l1.42-8.19 6.76 4.27 24.92 17.09a72.322 72.322 0 0 1 3.56-46.28c8.9-21 25.28-37.73 39.87-52.33 51.62-52.68 104.66-106.79 171.23-142.744l7.12-3.916 2.49 31.682a72.981 72.981 0 0 1 37.38-28.835c25.27-8.543 52.33-5.695 76.18-2.847 125.3 13.883 254.17 28.478 370.57 84.37l10.68 5.34-11.03 4.62a1523.982 1523.982 0 0 0-316.47 174.44l-3.56 2.49-34.89-34.89 17.09 38.09-4.63 2.49a468.164 468.164 0 0 0-170.15 138.12l-2.5 3.21-23.85-8.55 7.48 4.99-38.09 65.5a5.39 5.39 0 0 1-3.21 2.31c-1.32.33-2.72.14-3.91-.53a5.012 5.012 0 0 1-2.66-3.08 5.05 5.05 0 0 1-.17-2.08c.09-.69.33-1.36.69-1.96l32.75-56.6-72.97-47.35 100.03 34.53a484.696 484.696 0 0 1 167.31-135.98l-36.67-81.88 69.42 69.77c94.47-67.5 196.35-124 303.65-168.37-111.78-50.91-235.66-65.15-355.98-78.321-22.78-2.848-48.77-5.696-71.55 2.136-22.79 7.832-40.23 26.343-38.45 48.769v.712l-10.68 1.068v-.712l-3.56-45.209c-61.58 34.886-112.49 86.507-161.26 136.697-14.59 14.59-29.54 29.9-37.73 49.13-8.19 19.22-7.83 39.86 5.34 54.82l29.19 32.03-72.27-48.41c-4.98 29.55-10.67 59.81-15.66 90.06-18.15 76.18-8.9 203.98 10.68 283.72.32 1.37.09 2.81-.64 4.01a5.344 5.344 0 0 1-3.27 2.4l-1.07.36ZM2538.31 2087.95v-16.02a388.742 388.742 0 0 0-117.12-264.5c-1-1.06-1.56-2.46-1.56-3.91 0-1.46.56-2.86 1.56-3.92.47-.53 1.05-.95 1.69-1.25a5.004 5.004 0 0 1 4.1 0c.65.3 1.22.72 1.69 1.25a398.344 398.344 0 0 1 119.25 256.31c81.88-124.95 93.98-290.84 30.62-428.25a105.404 105.404 0 0 1-43.43 2.49l-7.83-1.06 3.91-6.77a133.489 133.489 0 0 1 26.7-31.32c-44.5-81.88-131.36-118.55-179.77-133.14-21-6.41-48.77-12.82-74.4-6.76-25.63 6.05-45.57 21.71-48.77 46.98l-5.69 43.43-5.34-43.43a105.716 105.716 0 0 1 10.32-58.02c-49.84 8.54-101.1 57.31-139.19 93.27l-11.04 10.68a254.532 254.532 0 0 0-77.24 152.71 5.38 5.38 0 0 1-.67 2c-.35.62-.83 1.15-1.39 1.59-.56.43-1.21.74-1.89.92-.69.18-1.4.22-2.1.12a5.337 5.337 0 0 1-3.45-1.93 5.3 5.3 0 0 1-1.18-3.77 264.161 264.161 0 0 1 80.81-159.48l10.67-10.32c42.01-39.87 99.32-94.33 155.92-97.54h10.33l-5.34 8.55a92.403 92.403 0 0 0-12.82 32.75 77.245 77.245 0 0 1 45.21-28.48c28.12-6.77 57.67.35 80.1 7.12 87.57 26.34 154.14 76.53 187.96 141.68l1.78 3.91-2.85 2.5c-8.6 7.31-16.36 15.54-23.14 24.56 11.68.74 23.39-.71 34.53-4.27l4.63-1.43 1.78 4.27c69.77 146.31 54.82 325.37-38.09 455.66l-9.26 12.82Z" class="color190157 svgShape"/><path fill="#190157" d="M2424.4 1808.86a7.464 7.464 0 0 1-3.56-1.43l-38.45-34.53c-10.32-8.54-20.65-17.8-30.61-26.7l-1.43 21.36c-.31 6.52-2.97 12.7-7.49 17.41a27.009 27.009 0 0 1-17.07 8.22l-79.74 6.05c-36.67 2.85-74.76 6.06-111.78-2.84-37.02-8.9-74.75-35.24-88.28-67.28-.44-.65-.72-1.38-.85-2.15-.12-.77-.07-1.56.15-2.31a5.29 5.29 0 0 1 2.96-3.4c.71-.32 1.49-.48 2.26-.46.78.01 1.55.2 2.25.54s1.32.83 1.81 1.44c.49.6.84 1.31 1.03 2.07 12.46 29.19 42.72 51.97 81.16 61.22 38.45 9.26 72.62 5.34 108.58 2.5l79.38-6.06a16.32 16.32 0 0 0 10.32-4.87 16.33 16.33 0 0 0 4.63-10.43l2.5-44.14 8.18 7.47 38.8 34.53c13.18 11.04 26.35 22.78 38.81 34.53.55.44 1 1 1.32 1.63.33.63.51 1.32.54 2.03.04.71-.08 1.41-.34 2.07-.26.66-.66 1.25-1.17 1.75a5.708 5.708 0 0 1-3.91 1.78ZM1253.58 1891.8c-5.7-76.53-11.04-157.34 23.49-225.69 11.39-22.78 28.84-44.85 53.4-51.26 24.56-6.41 42.36 1.78 60.16 13.52 17.8 11.75 31.33 28.13 44.85 44.15l-97.54 194.36-84.36 24.92Z" class="color190157 svgShape"/></svg>